# xmcd
#
# Track frame offsets:
#        150
#        23520
#        38956
#        57297
#
# Disc length: 1075 seconds
#
# Revision: 0
# Processed by: cddbd v1.5.1PL0 Copyright (c) Steve Scherf et al.
# Submitted via: ExactAudioCopy v0.95a5
#
DISCID=28043104
DTITLE=Skoop On Somebody - December
DYEAR=2004
DGENRE=JPop
TTITLE0=December
TTITLE1=Rhythm Medicine type A
TTITLE2=Jingle Bells -funny elements-
TTITLE3=December (Less Vocal)
EXTD=
EXTT0=
EXTT1=
EXTT2=
EXTT3=
PLAYORDER=
